HIERARCHY
ROOT Hips
{
	OFFSET -14.64140 90.27770 -84.91600
	CHANNELS 6 Xposition Yposition Zposition Zrotation Xrotation Yrotation
	JOINT Spine
	{
		OFFSET 0.00000 13.20850 -1.60436
		CHANNELS 3 Zrotation Xrotation Yrotation
		JOINT Spine1
		{
			OFFSET 0.00000 8.61716 0.00000
			CHANNELS 3 Zrotation Xrotation Yrotation
			JOINT Spine2
			{
				OFFSET 0.00000 8.61717 0.00000
				CHANNELS 3 Zrotation Xrotation Yrotation
				JOINT Spine3
				{
					OFFSET 0.00000 8.61717 0.00000
					CHANNELS 3 Zrotation Xrotation Yrotation
					JOINT Neck
					{
						OFFSET 0.00000 11.07920 1.10792
						CHANNELS 3 Zrotation Xrotation Yrotation
						JOINT Neck1
						{
							OFFSET 0.00000 7.08032 0.00000
							CHANNELS 3 Zrotation Xrotation Yrotation
							JOINT Head
							{
								OFFSET 0.00000 7.08031 0.00000
								CHANNELS 3 Zrotation Xrotation Yrotation
								End site
								{
									OFFSET 0.00000 0.00000 0.00000
								}
							}
						}
					}
					JOINT RightShoulder
					{
						OFFSET -0.01000 7.91373 5.19711
						CHANNELS 3 Zrotation Xrotation Yrotation
						JOINT RightArm
						{
							OFFSET -18.41580 0.00000 0.00000
							CHANNELS 3 Zrotation Xrotation Yrotation
							JOINT RightForeArm
							{
								OFFSET -29.11090 0.00000 0.00000
								CHANNELS 3 Zrotation Xrotation Yrotation
								JOINT RightHand
								{
									OFFSET -24.65040 0.00000 0.00000
									CHANNELS 3 Zrotation Xrotation Yrotation
									JOINT RightHandThumb1
									{
										OFFSET -5.35114 -0.85590 3.97906
										CHANNELS 3 Zrotation Xrotation Yrotation
										JOINT RightHandThumb2
										{
											OFFSET -4.52789 0.00000 0.00000
											CHANNELS 3 Zrotation Xrotation Yrotation
											JOINT RightHandThumb3
											{
												OFFSET -2.46976 0.00000 0.00000
												CHANNELS 3 Zrotation Xrotation Yrotation
												End site
												{
													OFFSET 0.00000 0.00000 0.00000
												}
											}
										}
									}
									JOINT RightHandIndex1
									{
										OFFSET -14.26970 0.00000 2.88139
										CHANNELS 3 Zrotation Xrotation Yrotation
										JOINT RightHandIndex2
										{
											OFFSET -5.48836 0.00000 0.00000
											CHANNELS 3 Zrotation Xrotation Yrotation
											JOINT RightHandIndex3
											{
												OFFSET -3.01859 0.00000 0.00000
												CHANNELS 3 Zrotation Xrotation Yrotation
												End site
												{
													OFFSET 0.00000 0.00000 0.00000
												}
											}
										}
									}
									JOINT RightHandMiddle1
									{
										OFFSET -14.26970 0.00000 -0.09147
										CHANNELS 3 Zrotation Xrotation Yrotation
										JOINT RightHandMiddle2
										{
											OFFSET -6.17441 0.00000 0.00000
											CHANNELS 3 Zrotation Xrotation Yrotation
											JOINT RightHandMiddle3
											{
												OFFSET -3.56743 0.00000 0.00000
												CHANNELS 3 Zrotation Xrotation Yrotation
												End site
												{
													OFFSET 0.00000 0.00000 0.00000
												}
											}
										}
									}
									JOINT RightHandRing1
									{
										OFFSET -12.69180 0.00000 -3.06433
										CHANNELS 3 Zrotation Xrotation Yrotation
										JOINT RightHandRing2
										{
											OFFSET -5.62556 0.00000 0.00000
											CHANNELS 3 Zrotation Xrotation Yrotation
											JOINT RightHandRing3
											{
												OFFSET -3.56744 0.00000 0.00000
												CHANNELS 3 Zrotation Xrotation Yrotation
												End site
												{
													OFFSET 0.00000 0.00000 0.00000
												}
											}
										}
									}
									JOINT RightHandPinky1
									{
										OFFSET -11.11390 0.00000 -6.03719
										CHANNELS 3 Zrotation Xrotation Yrotation
										JOINT RightHandPinky2
										{
											OFFSET -4.52789 0.00000 0.00000
											CHANNELS 3 Zrotation Xrotation Yrotation
											JOINT RightHandPinky3
											{
												OFFSET -2.46976 0.00000 0.00000
												CHANNELS 3 Zrotation Xrotation Yrotation
												End site
												{
													OFFSET 0.00000 0.00000 0.00000
												}
											}
										}
									}
								}
							}
						}
					}
					JOINT LeftShoulder
					{
						OFFSET 0.01000 7.91373 5.19711
						CHANNELS 3 Zrotation Xrotation Yrotation
						JOINT LeftArm
						{
							OFFSET 18.41580 0.00000 0.00000
							CHANNELS 3 Zrotation Xrotation Yrotation
							JOINT LeftForeArm
							{
								OFFSET 29.11090 0.00000 0.00000
								CHANNELS 3 Zrotation Xrotation Yrotation
								JOINT LeftHand
								{
									OFFSET 24.65040 0.00000 0.00000
									CHANNELS 3 Zrotation Xrotation Yrotation
									JOINT LeftHandThumb1
									{
										OFFSET 5.35114 -0.85590 3.97906
										CHANNELS 3 Zrotation Xrotation Yrotation
										JOINT LeftHandThumb2
										{
											OFFSET 4.52789 0.00000 0.00000
											CHANNELS 3 Zrotation Xrotation Yrotation
											JOINT LeftHandThumb3
											{
												OFFSET 2.46977 0.00000 0.00000
												CHANNELS 3 Zrotation Xrotation Yrotation
												End site
												{
													OFFSET 0.00000 0.00000 0.00000
												}
											}
										}
									}
									JOINT LeftHandIndex1
									{
										OFFSET 14.26970 0.00000 2.88139
										CHANNELS 3 Zrotation Xrotation Yrotation
										JOINT LeftHandIndex2
										{
											OFFSET 5.48836 0.00000 0.00000
											CHANNELS 3 Zrotation Xrotation Yrotation
											JOINT LeftHandIndex3
											{
												OFFSET 3.01859 0.00000 0.00000
												CHANNELS 3 Zrotation Xrotation Yrotation
												End site
												{
													OFFSET 0.00000 0.00000 0.00000
												}
											}
										}
									}
									JOINT LeftHandMiddle1
									{
										OFFSET 14.26970 0.00000 -0.09147
										CHANNELS 3 Zrotation Xrotation Yrotation
										JOINT LeftHandMiddle2
										{
											OFFSET 6.17440 0.00000 0.00000
											CHANNELS 3 Zrotation Xrotation Yrotation
											JOINT LeftHandMiddle3
											{
												OFFSET 3.56744 0.00000 0.00000
												CHANNELS 3 Zrotation Xrotation Yrotation
												End site
												{
													OFFSET 0.00000 0.00000 0.00000
												}
											}
										}
									}
									JOINT LeftHandRing1
									{
										OFFSET 12.69180 0.00000 -3.06433
										CHANNELS 3 Zrotation Xrotation Yrotation
										JOINT LeftHandRing2
										{
											OFFSET 5.62556 0.00000 0.00000
											CHANNELS 3 Zrotation Xrotation Yrotation
											JOINT LeftHandRing3
											{
												OFFSET 3.56744 0.00000 0.00000
												CHANNELS 3 Zrotation Xrotation Yrotation
												End site
												{
													OFFSET 0.00000 0.00000 0.00000
												}
											}
										}
									}
									JOINT LeftHandPinky1
									{
										OFFSET 11.11390 0.00000 -6.03719
										CHANNELS 3 Zrotation Xrotation Yrotation
										JOINT LeftHandPinky2
										{
											OFFSET 4.52789 0.00000 0.00000
											CHANNELS 3 Zrotation Xrotation Yrotation
											JOINT LeftHandPinky3
											{
												OFFSET 2.46976 0.00000 0.00000
												CHANNELS 3 Zrotation Xrotation Yrotation
												End site
												{
													OFFSET 0.00000 0.00000 0.00000
												}
											}
										}
									}
								}
							}
						}
					}
					JOINT pCube4
					{
						OFFSET 0.00000 10.91090 1.10792
						CHANNELS 3 Zrotation Xrotation Yrotation
						End site
						{
							OFFSET 0.00000 0.00000 0.00000
						}
					}
				}
			}
		}
	}
	JOINT RightUpLeg
	{
		OFFSET -9.98441 0.00000 0.00000
		CHANNELS 3 Zrotation Xrotation Yrotation
		JOINT RightLeg
		{
			OFFSET 0.00000 -42.11790 0.00000
			CHANNELS 3 Zrotation Xrotation Yrotation
			JOINT RightFoot
			{
				OFFSET 0.00000 -45.00020 -0.00001
				CHANNELS 3 Zrotation Xrotation Yrotation
				JOINT RightForeFoot
				{
					OFFSET 0.00000 -3.74820 0.00000
					CHANNELS 3 Zrotation Xrotation Yrotation
					JOINT RightToeBase
					{
						OFFSET 0.00000 0.06325 14.43120
						CHANNELS 3 Zrotation Xrotation Yrotation
						End site
						{
							OFFSET 0.00000 0.00000 0.00000
						}
					}
				}
			}
		}
	}
	JOINT LeftUpLeg
	{
		OFFSET 9.98441 0.00000 0.00000
		CHANNELS 3 Zrotation Xrotation Yrotation
		JOINT LeftLeg
		{
			OFFSET 0.00000 -42.11800 0.00000
			CHANNELS 3 Zrotation Xrotation Yrotation
			JOINT LeftFoot
			{
				OFFSET 0.00000 -45.00070 0.00000
				CHANNELS 3 Zrotation Xrotation Yrotation
				JOINT LeftForeFoot
				{
					OFFSET 0.00000 -3.74824 0.00000
					CHANNELS 3 Zrotation Xrotation Yrotation
					JOINT LeftToeBase
					{
						OFFSET 0.00000 0.06325 14.43110
						CHANNELS 3 Zrotation Xrotation Yrotation
						End site
						{
							OFFSET 0.00000 0.00000 0.00000
						}
					}
				}
			}
		}
	}
}
MOTION
Frames: 4
Frame Time: 0.050000
-0.035535182928384396 0.029368743154102483 0.02108342120158598 -0.009104786141281553 -0.039357685044412054 -0.020768365668527553 -1.6800552480004916 1.1062552554712353 -1.0365265504123014 -0.8147061154394554 3.5560892208142336 0.4078195309028551 -1.1809247645791632 -1.9318995992333639 -0.7642459701832158 0.05485061852704409 -0.26294425112047565 -0.7974420712343969 0.5932688666208079 11.98782527546296 -2.1175295395886464 0.20414212408743004 -0.5333192960664345 -6.30772329461724 0.9848160583980052 -15.891754704016998 -0.5476345206375887 -5.560295029221625 2.02947452923052 -15.93926198713621 70.05678026729639 -5.089876623567575 4.642008735902924 31.024750217750917 9.562612356969503 89.91584204948234 20.341959068286037 -0.434046716225073 -3.7862278509999676 4.492158762521758 -0.09795361302657223 -1.6359074017209125 0.0323146480026371 -0.040199385352730335 -56.25913001064915 0.01886978306708709 -0.034713856111167264 -56.19667237956191 -38.74264425317413 -0.025709037410711618 -0.03946672973016208 -0.0013805393519601217 0.03317578140934807 0.039092704013951256 0.015051299935953045 -0.046101687200151314 0.02140670269996066 -36.64668655759779 0.03177991977881286 0.03496446722091245 0.037674947869190144 0.04172497367321027 0.009698931736374209 0.009779908161884619 -0.02518466771104475 -0.042824096918601166 -19.76835966720863 0.036990037155373676 -0.022124266295609953 0.02000490105780365 0.04360073264653567 -0.03188287941221014 -0.012931513686273087 0.012148930887087614 0.012167402393718019 24.030787912750572 -0.03610738319875605 -0.04673670523829089 28.882193777710363 0.02293775958332905 0.03493915372734852 28.91156274902708 -0.024647680267167554 0.026197230473710923 5.3564649566362235 1.5356742680330477 13.715835608391897 -67.45705308225867 17.30366846030084 -4.5444424747804195 4.13002794317784 -5.2384145244569575 -78.25214806694565 -13.0100912946241 -0.6784535129268175 0.04715973862747888 -0.4886416706865904 0.03486966113353102 -8.105433812325517 -0.03401194959153531 0.0006248051984013783 44.5248896868847 -0.021519645127850564 0.03341567832129714 44.55144781329862 12.50861729908145 0.0028940709762961363 -0.0040287309161684826 0.04516583852179724 0.041240087083613715 0.006880859363634239 -0.009307730747523077 0.01654081620076055 -0.03554236934224081 11.147585561342968 -0.005785277557000767 0.014778236268191573 -0.035946648197240506 0.025136934053186313 -0.03209165130773418 -0.013711560040114538 0.023380635950882547 0.03953680157297466 4.804842604863478 0.0335601100946078 0.04500129053741472 0.0016107873025564489 0.026581760121911886 -0.010425205646661783 0.03859932357353049 0.021479069814415365 0.007744104571318673 -5.586454691999966 0.04276277328944968 -0.04592727412035925 -6.753725472829746 0.011203275392346827 0.004519854885662477 -6.728916226132585 0.04450585248785007 0.013933194039954694 -0.04531764755062885 -0.030089757198612833 0.026242764940903753 8.033479921720547 3.525751384532121 -19.21939556405114 0.015804239858217137 10.436500937315115 0.01999124448721871 -5.624528064127879 -15.659727367415504 3.1542381139799813 -0.03451731463224977 0.021322671612263828 0.018838386613632595 -0.0277693327412424 4.699093184036764 -0.0035477559586482416 12.435697851296062 -8.235394928193042 6.901606403624137 0.024455887462935554 46.36634158239046 -0.034703746954002516 -4.298991955912083 -14.753720137302642 -3.818529666012189 0.020352487561865116 0.016114524848019045 0.042733085742736786 0.04395154350973321 -10.776708057472591 0.0275088983219159 
0.011042410820004551 0.04353704822880895 0.02504379721094538 0.021348966802582303 -0.015471254476303944 -0.0020211953468363647 -1.7845816939027748 0.981453468203096 -1.0333610739160224 -0.8364392682135299 3.564292454501097 0.3571439291369356 -1.153570754992036 -1.9539263795021298 -0.8654068996263318 0.08303035562906988 -0.20844173887604733 -0.7600917646969392 0.42975150201980816 12.08274340889869 -1.8080085562734578 0.20652630764434587 -0.45491702123742145 -5.424439640458447 0.8163117185195926 -15.662559378674262 -0.42895902940172553 -5.429154475817856 2.0348372289747747 -15.835488293749298 69.96122337763609 -4.361439583940171 4.44586620897982 31.454329464609902 9.577317535340647 89.5560497044129 20.39618178574777 -0.4459591774764327 -3.6535112981547893 4.522447085436002 -0.13521966857911136 -1.6425681196034279 -0.03860994514672016 0.025258039463223022 -56.25541075626927 -0.015120180635976572 -0.03615801447054876 -56.19078395973262 -38.79057426554687 0.0009486156314492438 -0.0084753519029882 0.03495429148036188 0.003625162637884035 -0.0274740157551329 -0.02779969201443032 -0.005219675100126627 -0.017474724615452016 -36.713247279133405 0.020268259009629773 0.020665684754902526 -0.01913157236989732 0.03400860953862454 0.04752763486781833 -0.043966721985027886 -0.007700709762586571 -0.04461331321955277 -19.755084155997878 0.010256821140096673 0.0030727277562288334 0.013577748500049393 0.019870313318218005 -0.03981776582074521 0.024536277967303833 -0.022712335314332383 0.025977236822380265 24.063411750763475 -0.0072074888845863 0.022887867186523185 28.846668992871994 0.016757116630962153 -0.04554750456148877 28.860370643258356 -0.0037570965013785733 0.049445141871942405 5.840927751004909 1.5496808242549065 13.787082884725992 -67.18407968595666 15.483988873098331 -5.926473855024072 3.6591161240964074 -5.180784075860009 -79.98976930044535 -11.694237996217609 -0.32766950750001006 -0.2566292590085888 -0.47548391262933387 0.07137952076252542 -8.128180911337285 0.037930161186605395 0.031799117630103034 44.53979951561824 0.041097079723225995 -0.011671481310058594 44.55017354164281 12.461348200595786 0.003942700711478478 0.02748524625813009 0.04315288998773962 0.018121586753122632 0.014950020121284898 -0.011421206960179562 0.005549586591611437 -0.030414991909956685 11.083332434241948 -0.016286384542018154 0.02878323403274207 0.042737940634054734 0.009382117366138133 -0.009725808979821006 0.004902849478776439 -0.0005958543838362032 0.018691513723663247 4.75558655806407 -0.016986543469477814 0.001150143920462422 -0.04216415297595188 -0.026574784308330785 0.016163695208272714 -0.0036088785573697847 -0.03129574217073982 0.01189513691460489 -5.602811443011345 0.04068533407489465 0.024887786485008848 -6.684993212600896 -0.04909697484012067 -0.019492594615763432 -6.73014784475213 0.011930757967126318 0.027971740460586512 -0.049908668742714 0.020654334266377267 0.03323473610974413 8.032260865782284 3.4472390616493684 -19.209762823242453 -0.02629619691852144 10.403499012966508 -0.01502114685038345 -5.644300490839795 -15.619066851833807 3.2142384925238088 -0.04769066095429459 0.018505999846975613 -0.030112826596870704 0.0014202237771387726 4.720869558203656 0.002851378097487855 12.445894472097104 -8.283317867683152 6.843311449336273 -0.024498620106432074 46.40077976938564 0.03668893614998412 -4.364314885614276 -14.725437131726228 -3.859908917617188 0.02987633551867883 -0.0021892348085851394 -0.006071189837312615 0.018731940391149105 -10.696753994721009 0.045985838523916536 
-0.02837272979086243 -0.031023035036401123 0.0463651676576775 -0.03050019995585275 0.031488891234070775 0.008533719331523151 -1.9560293088063234 0.7292921540042726 -0.9618928686719442 -0.8090672805146736 3.549029350097679 0.3098270633767921 -1.0856747138379845 -1.9833951160170833 -1.0243868367099775 0.045372307437657945 -0.22162042355167622 -0.7852869038576977 0.2321936221329055 12.33576116908657 -1.4252566805382687 0.16896320577901344 -0.22974770856790347 -4.581690235826978 0.6820248069759847 -15.394707301066132 -0.35327933768440073 -5.517341717308251 2.0181688538325173 -15.733179521351323 69.71174112150536 -3.843790984502398 4.356938121893389 31.356494834715082 9.346990790929352 89.80368786631483 20.56573505646288 -0.38618305257917984 -3.738677655657508 4.540400787574074 -0.08497853587440793 -1.5498013827798662 0.02938846879600765 0.015519248444562674 -56.26421997542999 -0.009598881938439179 -0.026508340842895967 -56.25409842178133 -38.76710433980977 0.04163085343057795 -0.03718326437759295 -0.0052638514419898 0.0005475240025622161 -0.009600156164725874 -0.03162637147244925 -0.03406276868584547 0.04683379526994022 -36.71465972032208 -0.013826736955057548 -0.010472901170465997 0.016458068334009132 0.01758733239807878 0.01499675601249904 0.007151870633615288 0.039719158536112575 -0.02793808866432394 -19.755934057456063 -0.039373584823736756 0.0014678210911132884 -0.009554299932894693 -0.03343369396637086 0.025339229997743157 -0.04603639731461661 0.047151723415574616 0.0026520140677602907 24.026799941642807 -0.029576128122048538 -0.005374776695094785 28.838148832760524 -0.01642430455747423 -0.03111476422779021 28.84732019731131 0.0015070201566258128 -0.03892045305297759 6.3817894969676345 1.631442459724486 13.825792926691637 -66.94675049582104 13.99777922277269 -7.371370231303304 3.1883062790148182 -5.305839542117058 -82.5464973684418 -10.369952802461746 -0.42354523173233405 -0.34750827637147536 -0.4722230763986231 0.09769383853635011 -8.126436559248118 -0.01258879269100324 -0.044699585293339325 44.518441998950486 0.028675365003438688 0.017464524863201443 44.57327541915903 12.411616939870306 -0.045963350055217234 0.037469974068769375 -0.04603105169360559 -0.013979783190745181 0.033217035606945264 -0.0018869859711681753 -0.03291791861660488 0.01950748838212846 11.091605173050155 -0.04535638057241269 -0.01606857269071709 -0.014644116131556252 -0.009961228758158445 0.0033050806057755133 -0.031234558152970333 -0.001536722689323446 0.02229959014186609 4.754367992189363 -0.00072984453871008 0.02231978767377529 0.024418176496325102 0.023068169059022495 -0.018976193836749186 -0.03821777073977703 0.010635346885331824 0.029684441977344066 -5.642501157848467 0.017677652988385677 0.00863601668841938 -6.721716968034692 0.04230072117282545 -0.03537238181724033 -6.681534745721706 -0.0199245409793724 0.025034008030311132 -0.025157846665742507 0.03768852406743298 -0.04070521513080168 8.068264455833052 3.4980983355484234 -19.244299010051837 0.0482795729371012 10.34802549906909 0.021870758312002025 -5.580034772197873 -15.676197016593749 3.2273743254855054 0.032054752740712615 -0.007548032413262927 -0.0025638523662766858 0.02283362561507395 4.67322919321196 -0.010939082999228782 12.415442182193603 -8.246836049059604 6.896585728148415 0.04271710892261458 46.34285108603963 -0.0350491332233678 -4.279705590582344 -14.706888345101044 -3.8599736862578733 -0.005356426755796121 -0.0011527414783151066 0.04958096091075402 0.04931572858149601 -10.74225226768375 0.016253344154663472 
-0.04994334552928733 -0.0318393145192449 -0.019855288983706122 0.015626137665836204 -0.03447076403478527 0.0042572196257898215 -2.1185453055057337 0.5231436741678325 -0.9023905204179918 -0.8686271418846594 3.5818604968807213 0.36812603971198193 -1.1006345826903647 -2.104237059791358 -1.0822144130083027 -0.0019383952007264137 -0.22920533519918088 -0.7777930635900188 0.10020000753045531 12.4813988204638 -1.0194690056947426 0.1711869188570459 -0.04138714327793459 -3.642643448082199 0.4941397816803939 -15.068854905230273 -0.2865252126408135 -5.47013312819348 2.033052722618445 -15.596540170079447 69.36498103342193 -3.503355397283643 4.662840881263357 30.876913147570942 8.821157375297995 91.11963733294206 20.62788209881499 -0.3810293815711395 -3.9827063331662553 4.508411005991996 -0.12459686310214826 -1.5920894571757906 -0.04828021938950559 0.01942304597491202 -56.249122998054744 -0.00591157638691729 0.030312020010818452 -56.21278659651141 -38.72161503222202 -0.02603170202647346 -0.003991855280170538 0.0019268984358987436 -0.00903606214747689 0.03702194982327901 0.027337391974048057 -0.004999343374391076 0.03394159973738225 -36.74227513123894 -0.03574725137799931 0.03181935067802471 0.0393294305594891 -0.026880564425175654 0.013404472435261565 -0.018130499169982436 0.01207209827418559 -0.02113029347590098 -19.743990725674806 -0.03085962272034617 0.018769321477090803 0.03096339074641916 -0.03003707476394701 -0.04899953108331094 -0.011334431950673598 -0.010559995308657187 -0.0014978993568006277 24.038339194331037 0.04961771355392497 -0.040772663636464014 28.858615115101152 -0.010998651094870372 0.02400684741967835 28.870424833639902 0.0023210651857805548 -0.020428436521077207 6.789017705496596 1.7521521280362582 13.86253884451662 -66.65346113129912 13.184527176311796 -8.906118641780719 3.937096096513574 -6.069620460880697 -86.72844365710873 -8.960787514361336 -0.6188396519387162 -0.46967024852374073 -0.5163898052876115 0.06623721344367284 -8.16882312068912 -0.035264440332959855 -0.03309567170894717 44.570626433902426 0.03280242933283156 -0.023107083235073107 44.592302745758076 12.428045605543302 0.026998122799280787 -0.011593446574221431 0.040896001585611186 -0.014626967087804631 0.02452765247150479 -0.04241647966146211 0.02907695247371097 -0.015031554621910142 11.0604453582025 0.00956922298210864 -0.0009471982192789709 0.025221392698136166 -0.036993443777784435 -0.049347394441000406 0.035025109132947325 0.03621881035752316 0.0007104569133696968 4.792669748473733 -0.021844447051673536 -0.040879594459931765 0.015777535289569794 1.3376310378861271e-05 -0.016067090129795496 -0.024548576238562252 0.0042147081708278035 0.04590711602448115 -5.57404851722125 -0.010648436075583073 -0.0008800359535768833 -6.734031035754915 3.46096109296602e-05 -0.039798438174127926 -6.685756113401021 -0.04130383991780204 -0.004788320221291071 -0.02590357033481676 0.01393244732710769 0.018403329621327454 8.056912812783041 3.4857214498999305 -19.246830189059974 0.026059892016766166 10.372484421039688 0.03922686575549587 -5.585150981644888 -15.680989914739689 3.1800480944823826 0.005242180949597384 -0.04300715175672133 0.022183709827147707 -0.004150925508663061 4.6501797683707675 0.025271473972579013 12.41958926618577 -8.255470097420831 6.852014510260067 -0.005489626363539142 46.400727287544235 -0.038507259728618896 -4.310069024618626 -14.740507234201237 -3.8520213075855136 0.011582890090711749 -0.020614810391669243 0.025330772154925046 -0.017865852893279948 -10.745386584813389 -0.0434605427015983 
